<svg width="136" height="136" viewBox="0 0 136 136" fill="none" xmlns="http://www.w3.org/2000/svg">
  <path
    d="M68 135.5C105.279 135.5 135.5 105.279 135.5 68C135.5 30.7208 105.279 0.5 68 0.5C30.7208 0.5 0.5 30.7208 0.5 68C0.5 105.279 30.7208 135.5 68 135.5Z"
    stroke="black" />
  <path
    d="M84.008 51.9999C84.392 51.9999 84.584 51.8079 84.584 51.4239L83.672 17.8719C83.672 17.4879 83.48 17.2959 83.096 17.2959H79.544C79.208 17.2959 79.016 17.4399 78.872 17.7759L67.64 48.1599L56.408 17.7759C56.264 17.4399 56.072 17.2959 55.736 17.2959H52.04C51.656 17.2959 51.464 17.4879 51.464 17.8719L50.552 51.4239C50.552 51.8079 50.744 51.9999 51.128 51.9999H53.384C53.768 51.9999 53.96 51.8079 53.96 51.4239L54.392 20.3199L65.816 51.5199C65.96 51.8559 66.152 51.9999 66.488 51.9999H68.792C69.128 51.9999 69.32 51.8559 69.464 51.5199L80.744 20.7039L81.224 51.4239C81.224 51.8079 81.416 51.9999 81.8 51.9999H84.008Z"
    fill="black" />
  <path
    d="M84.008 84C84.392 84 84.584 84.192 84.584 84.576L83.672 118.128C83.672 118.512 83.48 118.704 83.096 118.704H79.544C79.208 118.704 79.016 118.56 78.872 118.224L67.64 87.84L56.408 118.224C56.264 118.56 56.072 118.704 55.736 118.704H52.04C51.656 118.704 51.464 118.512 51.464 118.128L50.552 84.576C50.552 84.192 50.744 84 51.128 84H53.384C53.768 84 53.96 84.192 53.96 84.576L54.392 115.68L65.816 84.48C65.96 84.144 66.152 84 66.488 84H68.792C69.128 84 69.32 84.144 69.464 84.48L80.744 115.296L81.224 84.576C81.224 84.192 81.416 84 81.8 84H84.008Z"
    fill="black" />
  <path
    d="M22.4512 72H21.4844V65.7354L19.4629 69.998H18.8867L16.8799 65.7354V72H15.9766V64.7295H17.2949L19.2334 68.7773L21.1084 64.7295H22.4512V72ZM29.1943 72H24.4043V64.7295H29.1943V65.5889H25.3711V67.5811H29.1943V68.4404H25.3711V71.1406H29.1943V72ZM36.2207 69.749C36.2207 70.1006 36.1507 70.4196 36.0107 70.7061C35.874 70.9925 35.6901 71.2253 35.459 71.4043C35.1855 71.6191 34.8926 71.7721 34.5801 71.8633C34.2676 71.9544 33.8639 72 33.3691 72H30.7324V64.7295H35.6006V65.5889H31.6992V67.5811H33.3984C33.8932 67.5811 34.2969 67.6104 34.6094 67.6689C34.9219 67.7243 35.2165 67.8594 35.4932 68.0742C35.7406 68.2663 35.9229 68.5039 36.04 68.7871C36.1605 69.0703 36.2207 69.391 36.2207 69.749ZM35.21 69.7686C35.21 69.5244 35.1693 69.3096 35.0879 69.124C35.0065 68.9385 34.8796 68.7887 34.707 68.6748C34.528 68.5544 34.3213 68.4811 34.0869 68.4551C33.8525 68.429 33.5221 68.416 33.0957 68.416H31.6992V71.1748H33.0713C33.5042 71.1748 33.8363 71.1536 34.0674 71.1113C34.3018 71.069 34.5068 70.9876 34.6826 70.8672C34.8649 70.7402 34.9984 70.5921 35.083 70.4229C35.1676 70.2503 35.21 70.0322 35.21 69.7686ZM42.3779 72H37.5879V64.7295H42.3779V65.5889H38.5547V67.5811H42.3779V68.4404H38.5547V71.1406H42.3779V72ZM49.3066 72H48.3398V65.5889H45.7129C45.7031 65.9567 45.6885 66.318 45.6689 66.6729C45.6527 67.0244 45.6396 67.3385 45.6299 67.6152C45.6038 68.3118 45.5599 68.8848 45.498 69.334C45.4395 69.7832 45.363 70.1527 45.2686 70.4424C45.1742 70.7354 45.0667 70.9697 44.9463 71.1455C44.8291 71.318 44.694 71.4743 44.541 71.6143C44.3848 71.7575 44.2236 71.86 44.0576 71.9219C43.8949 71.9837 43.7028 72.0146 43.4814 72.0146C43.4131 72.0146 43.3301 72.0114 43.2324 72.0049C43.1348 72.0016 43.0664 72 43.0273 72V71.0625H43.0957C43.1283 71.0658 43.1689 71.069 43.2178 71.0723C43.2666 71.0755 43.3154 71.0771 43.3643 71.0771C43.4814 71.0771 43.5921 71.0592 43.6963 71.0234C43.8005 70.9876 43.8883 70.9323 43.96 70.8574C44.1911 70.6263 44.3604 70.2454 44.4678 69.7148C44.5785 69.1842 44.6566 68.429 44.7021 67.4492C44.7184 67.1302 44.7347 66.707 44.751 66.1797C44.7705 65.6523 44.7868 65.1689 44.7998 64.7295H49.3066V72ZM55.6885 69.7686C55.6885 69.5244 55.6478 69.3096 55.5664 69.124C55.485 68.9385 55.3581 68.7887 55.1855 68.6748C55.0065 68.5544 54.7998 68.4811 54.5654 68.4551C54.3311 68.429 54.0007 68.416 53.5742 68.416H52.2266V71.1748H53.5498C53.9827 71.1748 54.3148 71.1536 54.5459 71.1113C54.7803 71.069 54.9854 70.9876 55.1611 70.8672C55.3434 70.7402 55.4769 70.5921 55.5615 70.4229C55.6462 70.2503 55.6885 70.0322 55.6885 69.7686ZM56.6992 69.749C56.6992 70.1006 56.6292 70.4196 56.4893 70.7061C56.3525 70.9925 56.1686 71.2253 55.9375 71.4043C55.6641 71.6191 55.3711 71.7721 55.0586 71.8633C54.7461 71.9544 54.3424 72 53.8477 72H51.2598V64.7295H52.2266V67.5811H53.877C54.3717 67.5811 54.7754 67.6104 55.0879 67.6689C55.4004 67.7243 55.695 67.8594 55.9717 68.0742C56.2191 68.2663 56.4014 68.5039 56.5186 68.7871C56.639 69.0703 56.6992 69.391 56.6992 69.749ZM63.6279 72H62.6611V68.4404H59.0332V72H58.0664V64.7295H59.0332V67.5811H62.6611V64.7295H63.6279V72ZM70.0146 69.7686C70.0146 69.5244 69.974 69.3096 69.8926 69.124C69.8112 68.9385 69.6842 68.7887 69.5117 68.6748C69.3327 68.5544 69.126 68.4811 68.8916 68.4551C68.6572 68.429 68.3268 68.416 67.9004 68.416H66.5527V71.1748H67.876C68.3089 71.1748 68.641 71.1536 68.8721 71.1113C69.1064 71.069 69.3115 70.9876 69.4873 70.8672C69.6696 70.7402 69.8031 70.5921 69.8877 70.4229C69.9723 70.2503 70.0146 70.0322 70.0146 69.7686ZM71.0254 69.749C71.0254 70.1006 70.9554 70.4196 70.8154 70.7061C70.6787 70.9925 70.4948 71.2253 70.2637 71.4043C69.9902 71.6191 69.6973 71.7721 69.3848 71.8633C69.0723 71.9544 68.6686 72 68.1738 72H65.5859V64.7295H66.5527V67.5811H68.2031C68.6979 67.5811 69.1016 67.6104 69.4141 67.6689C69.7266 67.7243 70.0212 67.8594 70.2979 68.0742C70.5452 68.2663 70.7275 68.5039 70.8447 68.7871C70.9652 69.0703 71.0254 69.391 71.0254 69.749ZM72.8369 72H71.8701V64.7295H72.8369V72ZM80.3467 72H79.3848V66.1748L75.7715 72H74.7949V64.7295H75.7568V70.4668L79.3262 64.7295H80.3467V72ZM79.4629 62.5518C79.4466 63.0921 79.2741 63.499 78.9453 63.7725C78.6198 64.0459 78.1836 64.1826 77.6367 64.1826C77.0898 64.1826 76.652 64.0459 76.3232 63.7725C75.9977 63.499 75.8268 63.0921 75.8105 62.5518H76.6992C76.7057 62.9163 76.7871 63.18 76.9434 63.3428C77.0996 63.5023 77.3307 63.582 77.6367 63.582C77.946 63.582 78.1771 63.5023 78.3301 63.3428C78.4863 63.1833 78.5677 62.9196 78.5742 62.5518H79.4629ZM91.4355 71.4727C91.2565 71.5508 91.0938 71.624 90.9473 71.6924C90.804 71.7607 90.6152 71.8324 90.3809 71.9072C90.1823 71.9691 89.9658 72.0212 89.7314 72.0635C89.5003 72.109 89.2448 72.1318 88.9648 72.1318C88.4375 72.1318 87.9574 72.0586 87.5244 71.9121C87.0947 71.7624 86.7204 71.5296 86.4014 71.2139C86.0889 70.9046 85.8447 70.5124 85.6689 70.0371C85.4932 69.5586 85.4053 69.0036 85.4053 68.3721C85.4053 67.7731 85.4899 67.2376 85.6592 66.7656C85.8285 66.2936 86.0726 65.8949 86.3916 65.5693C86.7008 65.2536 87.0736 65.0127 87.5098 64.8467C87.9492 64.6807 88.4359 64.5977 88.9697 64.5977C89.3604 64.5977 89.7493 64.6449 90.1367 64.7393C90.5273 64.8337 90.9603 64.9997 91.4355 65.2373V66.3848H91.3623C90.9619 66.0495 90.5648 65.8053 90.1709 65.6523C89.777 65.4993 89.3555 65.4229 88.9062 65.4229C88.5384 65.4229 88.2064 65.4831 87.9102 65.6035C87.6172 65.7207 87.3551 65.9046 87.124 66.1553C86.8994 66.3994 86.7236 66.7087 86.5967 67.083C86.473 67.4541 86.4111 67.8838 86.4111 68.3721C86.4111 68.8831 86.4795 69.3226 86.6162 69.6904C86.7562 70.0583 86.9352 70.3577 87.1533 70.5889C87.3812 70.8298 87.6465 71.0088 87.9492 71.126C88.2552 71.2399 88.5775 71.2969 88.916 71.2969C89.3815 71.2969 89.8177 71.2171 90.2246 71.0576C90.6315 70.8981 91.0124 70.6589 91.3672 70.3398H91.4355V71.4727ZM98.5352 72H97.5049L96.792 69.9736H93.6475L92.9346 72H91.9531L94.5996 64.7295H95.8887L98.5352 72ZM96.4941 69.1436L95.2197 65.5742L93.9404 69.1436H96.4941ZM105.029 72H104.062V65.5889H101.436C101.426 65.9567 101.411 66.318 101.392 66.6729C101.375 67.0244 101.362 67.3385 101.353 67.6152C101.326 68.3118 101.283 68.8848 101.221 69.334C101.162 69.7832 101.086 70.1527 100.991 70.4424C100.897 70.7354 100.789 70.9697 100.669 71.1455C100.552 71.318 100.417 71.4743 100.264 71.6143C100.107 71.7575 99.9463 71.86 99.7803 71.9219C99.6175 71.9837 99.4255 72.0146 99.2041 72.0146C99.1357 72.0146 99.0527 72.0114 98.9551 72.0049C98.8574 72.0016 98.7891 72 98.75 72V71.0625H98.8184C98.8509 71.0658 98.8916 71.069 98.9404 71.0723C98.9893 71.0755 99.0381 71.0771 99.0869 71.0771C99.2041 71.0771 99.3148 71.0592 99.4189 71.0234C99.5231 70.9876 99.611 70.9323 99.6826 70.8574C99.9137 70.6263 100.083 70.2454 100.19 69.7148C100.301 69.1842 100.379 68.429 100.425 67.4492C100.441 67.1302 100.457 66.707 100.474 66.1797C100.493 65.6523 100.509 65.1689 100.522 64.7295H105.029V72ZM112.402 65.5645C112.699 65.89 112.925 66.2887 113.081 66.7607C113.241 67.2327 113.32 67.7682 113.32 68.3672C113.32 68.9661 113.239 69.5033 113.076 69.9785C112.917 70.4505 112.692 70.8444 112.402 71.1602C112.103 71.4889 111.748 71.7363 111.338 71.9023C110.931 72.0684 110.465 72.1514 109.941 72.1514C109.43 72.1514 108.965 72.0667 108.545 71.8975C108.128 71.7282 107.773 71.4824 107.48 71.1602C107.188 70.8379 106.961 70.4424 106.802 69.9736C106.646 69.5049 106.567 68.9694 106.567 68.3672C106.567 67.7747 106.646 67.2441 106.802 66.7754C106.958 66.3034 107.186 65.8997 107.485 65.5645C107.772 65.2454 108.127 65.0013 108.55 64.832C108.976 64.6628 109.44 64.5781 109.941 64.5781C110.462 64.5781 110.929 64.6644 111.343 64.8369C111.759 65.0062 112.113 65.2487 112.402 65.5645ZM112.314 68.3672C112.314 67.4232 112.103 66.6956 111.68 66.1846C111.257 65.6702 110.679 65.4131 109.946 65.4131C109.207 65.4131 108.626 65.6702 108.203 66.1846C107.783 66.6956 107.573 67.4232 107.573 68.3672C107.573 69.321 107.788 70.0518 108.218 70.5596C108.647 71.0641 109.224 71.3164 109.946 71.3164C110.669 71.3164 111.243 71.0641 111.67 70.5596C112.1 70.0518 112.314 69.321 112.314 68.3672ZM120.415 72H119.448V68.4404H115.82V72H114.854V64.7295H115.82V67.5811H119.448V64.7295H120.415V72Z"
    fill="black" />
</svg>