<svg aria-hidden="true" style="position: absolute; width: 0; height: 0; overflow: hidden"
  xmlns="http://www.w3.org/2000/svg" xmlns:xlink="http://www.w3.org/1999/xlink">
  <defs>
    <symbol width="24" height="24" viewBox="0 0 24 24" fill="none" xmlns="http://www.w3.org/2000/svg">
      <g clip-path="url(#clip0_1_435)">
        <path
          d="M15 4.5C15.3978 4.5 15.7794 4.65804 16.0607 4.93934C16.342 5.22064 16.5 5.60218 16.5 6V18C16.5 18.3978 16.342 18.7794 16.0607 19.0607C15.7794 19.342 15.3978 19.5 15 19.5H9C8.60218 19.5 8.22064 19.342 7.93934 19.0607C7.65804 18.7794 7.5 18.3978 7.5 18V6C7.5 5.60218 7.65804 5.22064 7.93934 4.93934C8.22064 4.65804 8.60218 4.5 9 4.5H15ZM9 3C8.20435 3 7.44129 3.31607 6.87868 3.87868C6.31607 4.44129 6 5.20435 6 6V18C6 18.7956 6.31607 19.5587 6.87868 20.1213C7.44129 20.6839 8.20435 21 9 21H15C15.7956 21 16.5587 20.6839 17.1213 20.1213C17.6839 19.5587 18 18.7956 18 18V6C18 5.20435 17.6839 4.44129 17.1213 3.87868C16.5587 3.31607 15.7956 3 15 3H9Z"
          fill="#343434" />
        <path
          d="M12 18.0002C12.3978 18.0002 12.7794 17.8422 13.0607 17.5609C13.342 17.2796 13.5 16.8981 13.5 16.5002C13.5 16.1024 13.342 15.7209 13.0607 15.4396C12.7794 15.1583 12.3978 15.0002 12 15.0002C11.6022 15.0002 11.2207 15.1583 10.9394 15.4396C10.658 15.7209 10.5 16.1024 10.5 16.5002C10.5 16.8981 10.658 17.2796 10.9394 17.5609C11.2207 17.8422 11.6022 18.0002 12 18.0002ZM2.39851 6.08724C2.4856 6.13332 2.56275 6.1961 2.62556 6.272C2.68837 6.3479 2.73562 6.43544 2.76459 6.5296C2.79356 6.62377 2.8037 6.72272 2.79442 6.8208C2.78514 6.91889 2.75663 7.01418 2.71051 7.10124C1.91288 8.61084 1.49726 10.2929 1.50001 12.0002C1.50001 13.7702 1.93801 15.4382 2.71051 16.8992C2.8036 17.0751 2.82303 17.2807 2.76452 17.4709C2.70601 17.661 2.57435 17.8202 2.39851 17.9132C2.22267 18.0063 2.01706 18.0258 1.8269 17.9672C1.63673 17.9087 1.4776 17.7771 1.38451 17.6012C0.472548 15.8753 -0.00280132 13.9523 1.24191e-05 12.0002C1.24191e-05 9.97974 0.501012 8.07174 1.38451 6.39924C1.43059 6.31216 1.49337 6.23501 1.56927 6.17219C1.64517 6.10938 1.73271 6.06214 1.82687 6.03317C1.92104 6.00419 2.01999 5.99405 2.11807 6.00333C2.21616 6.01261 2.31145 6.04113 2.39851 6.08724V6.08724ZM21.6015 6.08724C21.6886 6.04113 21.7839 6.01261 21.882 6.00333C21.98 5.99405 22.079 6.00419 22.1732 6.03317C22.2673 6.06214 22.3549 6.10938 22.4308 6.17219C22.5067 6.23501 22.5694 6.31216 22.6155 6.39924C23.5275 8.12515 24.0029 10.0482 24 12.0002C24.0029 13.9523 23.5275 15.8753 22.6155 17.6012C22.5224 17.7771 22.3633 17.9087 22.1731 17.9672C21.983 18.0258 21.7774 18.0063 21.6015 17.9132C21.4257 17.8202 21.294 17.661 21.2355 17.4709C21.177 17.2807 21.1964 17.0751 21.2895 16.8992C22.0871 15.3896 22.5028 13.7076 22.5 12.0002C22.5 10.2302 22.062 8.56224 21.2895 7.10124C21.2434 7.01418 21.2149 6.91889 21.2056 6.8208C21.1963 6.72272 21.2065 6.62377 21.2354 6.5296C21.2644 6.43544 21.3117 6.3479 21.3745 6.272C21.4373 6.1961 21.5144 6.13332 21.6015 6.08724ZM4.58551 8.30124C4.67734 8.33705 4.76121 8.3906 4.83233 8.45884C4.90345 8.52708 4.96042 8.60867 4.99998 8.69895C5.03954 8.78922 5.06093 8.8864 5.06291 8.98495C5.06488 9.08349 5.04742 9.18146 5.01151 9.27324C4.67242 10.1424 4.49893 11.0673 4.50001 12.0002C4.50001 12.9632 4.68001 13.8827 5.01001 14.7272C5.05187 14.8199 5.07443 14.9202 5.07633 15.0219C5.07823 15.1236 5.05942 15.2246 5.02105 15.3188C4.98268 15.413 4.92555 15.4984 4.85314 15.5698C4.78072 15.6413 4.69454 15.6972 4.59982 15.7343C4.5051 15.7714 4.40383 15.7888 4.30217 15.7855C4.20051 15.7822 4.10058 15.7583 4.00846 15.7151C3.91634 15.672 3.83396 15.6106 3.76632 15.5346C3.69868 15.4587 3.6472 15.3697 3.61501 15.2732C3.20771 14.2301 2.99913 13.12 3.00001 12.0002C3.00001 10.8467 3.21751 9.74274 3.61501 8.72724C3.68734 8.54215 3.83016 8.39333 4.01213 8.31345C4.19409 8.23358 4.40031 8.22919 4.58551 8.30124V8.30124ZM19.4145 8.30124C19.5063 8.26533 19.6043 8.24787 19.7028 8.24985C19.8014 8.25183 19.8985 8.27321 19.9888 8.31278C20.0791 8.35234 20.1607 8.40931 20.2289 8.48043C20.2972 8.55154 20.3507 8.63541 20.3865 8.72724C20.7825 9.74274 21 10.8467 21 12.0002C21 13.1537 20.7825 14.2577 20.385 15.2732C20.3059 15.4485 20.1625 15.5867 19.9844 15.6592C19.8063 15.7317 19.6072 15.7331 19.4281 15.663C19.249 15.5929 19.1037 15.4567 19.0222 15.2826C18.9407 15.1085 18.9292 14.9096 18.99 14.7272C19.32 13.8827 19.5 12.9632 19.5 12.0002C19.5 11.0372 19.32 10.1177 18.99 9.27324C18.9174 9.08806 18.9213 8.88161 19.001 8.69933C19.0806 8.51704 19.2293 8.37385 19.4145 8.30124V8.30124Z"
          fill="#343434" />
      </g>
    </symbol>
    <symbol width="24" height="24" viewBox="0 0 24 24" fill="none" xmlns="http://www.w3.org/2000/svg">
      <path
        d="M5.25 4H18.75C19.5801 3.99995 20.3788 4.31755 20.9822 4.88767C21.5856 5.45779 21.948 6.23719 21.995 7.066L22 7.25V16.75C22.0001 17.5801 21.6824 18.3788 21.1123 18.9822C20.5422 19.5856 19.7628 19.948 18.934 19.995L18.75 20H5.25C4.41986 20.0001 3.62117 19.6824 3.01777 19.1123C2.41437 18.5422 2.052 17.7628 2.005 16.934L2 16.75V7.25C1.99995 6.41986 2.31755 5.62117 2.88767 5.01777C3.45779 4.41437 4.23719 4.052 5.066 4.005L5.25 4H18.75H5.25ZM20.5 9.373L12.35 13.663C12.258 13.7116 12.1568 13.7405 12.053 13.7479C11.9492 13.7553 11.845 13.7411 11.747 13.706L11.651 13.664L3.5 9.374V16.75C3.50002 17.1892 3.66517 17.6123 3.96268 17.9354C4.26019 18.2585 4.6683 18.4579 5.106 18.494L5.25 18.5H18.75C19.1893 18.5 19.6126 18.3347 19.9357 18.037C20.2588 17.7392 20.4581 17.3309 20.494 16.893L20.5 16.75V9.373ZM18.75 5.5H5.25C4.81081 5.50002 4.38768 5.66517 4.06461 5.96268C3.74154 6.26019 3.54214 6.6683 3.506 7.106L3.5 7.25V7.679L12 12.152L20.5 7.678V7.25C20.5 6.81065 20.3347 6.38739 20.037 6.06429C19.7392 5.74119 19.3309 5.5419 18.893 5.506L18.75 5.5Z"
        fill="#343434" />
    </symbol>
    <symbol width="24" height="24" viewBox="0 0 24 24" fill="none" xmlns="http://www.w3.org/2000/svg">
      <path
        d="M12 16C13.0609 16 14.0783 15.5786 14.8284 14.8284C15.5786 14.0783 16 13.0609 16 12C16 10.9391 15.5786 9.92172 14.8284 9.17157C14.0783 8.42143 13.0609 8 12 8C10.9391 8 9.92172 8.42143 9.17157 9.17157C8.42143 9.92172 8 10.9391 8 12C8 13.0609 8.42143 14.0783 9.17157 14.8284C9.92172 15.5786 10.9391 16 12 16V16Z"
        stroke="#343434" stroke-width="1.5" stroke-linecap="round" stroke-linejoin="round" />
      <path
        d="M3 16V8C3 6.67392 3.52678 5.40215 4.46447 4.46447C5.40215 3.52678 6.67392 3 8 3H16C17.3261 3 18.5979 3.52678 19.5355 4.46447C20.4732 5.40215 21 6.67392 21 8V16C21 17.3261 20.4732 18.5979 19.5355 19.5355C18.5979 20.4732 17.3261 21 16 21H8C6.67392 21 5.40215 20.4732 4.46447 19.5355C3.52678 18.5979 3 17.3261 3 16Z"
        stroke="#343434" stroke-width="1.5" />
      <path d="M17.5 6.51002L17.51 6.49902" stroke="#343434" stroke-width="1.5" stroke-linecap="round"
        stroke-linejoin="round" />
    </symbol>
    <symbol width="24" height="24" viewBox="0 0 24 24" fill="none" xmlns="http://www.w3.org/2000/svg">
      <path
        d="M12 13.5C11.2583 13.5 10.5333 13.2801 9.91661 12.868C9.29993 12.456 8.81928 11.8703 8.53545 11.1851C8.25162 10.4998 8.17736 9.74584 8.32206 9.01841C8.46675 8.29098 8.8239 7.6228 9.34835 7.09835C9.8728 6.5739 10.541 6.21675 11.2684 6.07206C11.9958 5.92736 12.7498 6.00162 13.4351 6.28545C14.1203 6.56928 14.706 7.04993 15.118 7.66661C15.5301 8.2833 15.75 9.00832 15.75 9.75C15.7488 10.7442 15.3533 11.6973 14.6503 12.4003C13.9473 13.1033 12.9942 13.4988 12 13.5ZM12 7.5C11.555 7.5 11.12 7.63196 10.75 7.8792C10.38 8.12643 10.0916 8.47783 9.92127 8.88896C9.75098 9.3001 9.70642 9.7525 9.79323 10.189C9.88005 10.6254 10.0943 11.0263 10.409 11.341C10.7237 11.6557 11.1246 11.87 11.561 11.9568C11.9975 12.0436 12.4499 11.999 12.861 11.8287C13.2722 11.6584 13.6236 11.37 13.8708 11C14.118 10.63 14.25 10.195 14.25 9.75C14.2494 9.15345 14.0122 8.5815 13.5903 8.15967C13.1685 7.73784 12.5966 7.5006 12 7.5Z"
        fill="#343434" />
      <path
        d="M12 22.5L5.67301 15.0382C5.58509 14.9262 5.49809 14.8135 5.41201 14.7C4.33124 13.2763 3.74739 11.5374 3.75001 9.75C3.75001 7.56196 4.6192 5.46354 6.16638 3.91637C7.71355 2.36919 9.81197 1.5 12 1.5C14.188 1.5 16.2865 2.36919 17.8336 3.91637C19.3808 5.46354 20.25 7.56196 20.25 9.75C20.2526 11.5366 19.669 13.2747 18.5888 14.6978L18.588 14.7C18.588 14.7 18.363 14.9955 18.3293 15.0353L12 22.5ZM6.60901 13.7963C6.61051 13.7963 6.78451 14.0272 6.82426 14.0767L12 20.181L17.1825 14.0685C17.2155 14.0272 17.391 13.7948 17.3918 13.794C18.2746 12.6308 18.7517 11.2103 18.75 9.75C18.75 7.95979 18.0388 6.2429 16.773 4.97703C15.5071 3.71116 13.7902 3 12 3C10.2098 3 8.49291 3.71116 7.22704 4.97703C5.96117 6.2429 5.25001 7.95979 5.25001 9.75C5.24844 11.2112 5.72609 12.6326 6.60976 13.7963H6.60901Z"
        fill="#343434" />
    </symbol>
  </defs>
</svg>